<?xml version="1.0" encoding="UTF-8"?>
<svg version="1.1" xmlns="http://www.w3.org/2000/svg" width="550" height="550">
<path d="M0 0 C4.84010733 4.40582852 6.70186775 9.59788332 8.8125 15.6875 C9.12380859 16.54150391 9.43511719 17.39550781 9.75585938 18.27539062 C12 24.5540522 12 24.5540522 12 28 C12.73237475 27.99723462 13.46474951 27.99446924 14.21931744 27.99162006 C32.03805199 27.92537249 49.85676196 27.8757254 67.67559338 27.84456348 C76.29264434 27.82909334 84.90961312 27.80800102 93.52661133 27.77368164 C101.03702309 27.74378377 108.54737532 27.72442607 116.05784494 27.71773452 C120.03474916 27.7138229 124.01148309 27.70462709 127.98833275 27.68280983 C131.73197029 27.6624385 135.47536747 27.65616746 139.21905518 27.66067696 C141.24704555 27.65945889 143.27500978 27.64332014 145.30293274 27.6267395 C146.51303009 27.63086349 147.72312744 27.63498749 148.96989441 27.63923645 C150.54477772 27.63508838 150.54477772 27.63508838 152.15147686 27.63085651 C156.27531874 28.16527007 158.80992023 29.71628207 161.62064385 32.74815977 C163.36878726 35.60205625 163.37695858 37.42025998 163.38031673 40.75689602 C163.38875668 41.93916442 163.39719662 43.12143283 163.40589231 44.33952755 C163.39988227 45.63960611 163.39387222 46.93968467 163.38768005 48.27915955 C163.39185179 49.6732352 163.39732843 51.06730746 163.40399987 52.46137339 C163.41849433 56.29648227 163.41419736 60.13137698 163.40683305 63.96649778 C163.40211353 68.1008701 163.41460042 72.23519527 163.42485046 76.36955261 C163.44206772 84.47073418 163.44287243 92.57183829 163.43763756 100.67303341 C163.43360008 107.25614184 163.43503439 113.83922734 163.44038582 120.42233467 C163.44113424 121.3584212 163.44188266 122.29450772 163.44265376 123.2589605 C163.4441852 125.16047172 163.44572355 127.06198293 163.44726873 128.96349413 C163.46100435 146.80519931 163.45554862 164.64686067 163.44408352 182.48856486 C163.43414989 198.81942214 163.44709217 215.15016615 163.47101771 231.48100596 C163.49538652 248.24038246 163.50502206 264.99970615 163.49836498 281.75910002 C163.49486784 291.17189646 163.49713742 300.58460576 163.51461601 309.99738884 C163.52931029 318.01028817 163.53000988 326.023039 163.5125451 334.03593533 C163.50400976 338.12568875 163.50194695 342.21517655 163.51719666 346.30491638 C163.53097885 350.04736495 163.52636489 353.78931876 163.50695742 357.53173823 C163.50138335 359.53007589 163.51552274 361.52843833 163.53031152 363.52672905 C163.52049723 364.7116052 163.51068294 365.89648135 163.50057125 367.11726284 C163.50046391 368.13995972 163.50035658 369.1626566 163.50024599 370.2163443 C162.8658898 373.7462661 161.45062614 375.43102239 159 378 C156.0496195 379.47519025 153.46013997 379.08406071 150.16633606 379.04382324 C149.09870538 379.03323828 149.09870538 379.03323828 148.0095064 379.02243948 C146.44358098 379.00641125 144.8776779 378.98808118 143.31180191 378.9677906 C139.8680213 378.92337508 136.42415843 378.89026034 132.98025835 378.85660744 C131.12103589 378.83842441 129.26181864 378.81970146 127.40260661 378.8004818 C115.35692753 378.67863085 103.31082882 378.6422952 91.26464427 378.60296726 C79.57371825 378.56443679 67.88460203 378.49980816 56.19458008 378.34521484 C-20.25731461 375.60784477 -20.25731461 375.60784477 -86.8125 408.8125 C-90.99681113 412.43353848 -95.20146011 416.01418257 -99.5 419.5 C-103.72793438 422.93208791 -107.87508351 426.44572854 -112 430 C-117.9226576 435.09796337 -123.90677967 440.10608018 -130 445 C-131.09441406 445.91652344 -131.09441406 445.91652344 -132.2109375 446.8515625 C-136.3732195 450.21647247 -139.42979516 452.10315194 -145 452 C-149.61138835 450.12490566 -152.17533988 448.05187799 -155.1875 444.125 C-155.95707031 443.1453125 -156.72664062 442.165625 -157.51953125 441.15625 C-157.92252441 440.63933594 -158.32551758 440.12242187 -158.74072266 439.58984375 C-160.88711544 436.88001245 -163.13287958 434.25569112 -165.375 431.625 C-166.30736328 430.52610242 -167.23965437 429.42714359 -168.171875 428.328125 C-169.11446959 427.21865336 -170.05717822 426.10927859 -171 425 C-176.19219022 418.89111965 -181.38123581 412.78489359 -186.4375 406.5625 C-189.89274151 402.31607618 -193.42697834 398.14703706 -197 394 C-201.32167542 388.98403597 -205.55479041 383.90824892 -209.73046875 378.76953125 C-214.08505794 373.45558334 -218.55078435 368.23473234 -223 363 C-228.19219022 356.89111965 -233.38123581 350.78489359 -238.4375 344.5625 C-242.39508188 339.69870975 -246.46542446 334.94118769 -250.55834961 330.19165039 C-254.33334391 325.8019965 -258.00728461 321.33885229 -261.65625 316.84375 C-264.39302138 313.52313406 -267.19106385 310.25956291 -270 307 C-274.32172863 301.98408311 -278.55479196 296.90824701 -282.73046875 291.76953125 C-287.08505794 286.45558334 -291.55078435 281.23473234 -296 276 C-301.19219022 269.89111965 -306.38123581 263.78489359 -311.4375 257.5625 C-315.39508188 252.69870975 -319.46542446 247.94118769 -323.55834961 243.19165039 C-327.33334391 238.8019965 -331.00728461 234.33885229 -334.65625 229.84375 C-337.39302494 226.52312974 -340.19120134 223.25968592 -343 220 C-347.39171526 214.89884848 -351.74009479 209.77044299 -355.953125 204.51953125 C-357.30085624 202.86058726 -358.68609544 201.231319 -360.109375 199.63671875 C-363.96440845 195.17259001 -365.78049739 192.11296869 -365.63671875 186.140625 C-364.14899364 181.13894794 -360.01720323 178.00308105 -356.0625 174.875 C-354.60650391 173.70710938 -354.60650391 173.70710938 -353.12109375 172.515625 C-352.61046387 172.10634766 -352.09983398 171.69707031 -351.57373047 171.27539062 C-348.88928939 169.09985228 -346.25791103 166.86239915 -343.625 164.625 C-343.08319092 164.16544922 -342.54138184 163.70589844 -341.9831543 163.23242188 C-340.3214104 161.82242765 -338.66056473 160.41138268 -337 159 C-330.89111965 153.80780978 -324.78489359 148.61876419 -318.5625 143.5625 C-314.31607618 140.10725849 -310.14703706 136.57302166 -306 133 C-300.98403597 128.67832458 -295.90824892 124.44520959 -290.76953125 120.26953125 C-285.45558334 115.91494206 -280.23473234 111.44921565 -275 107 C-268.89111965 101.80780978 -262.78489359 96.61876419 -256.5625 91.5625 C-251.69870975 87.60491812 -246.94118769 83.53457554 -242.19165039 79.44165039 C-237.8019965 75.66665609 -233.33885229 71.99271539 -228.84375 68.34375 C-225.52313406 65.60697862 -222.25956291 62.80893615 -219 60 C-213.99299404 55.68594905 -208.93054274 51.4555021 -203.79296875 47.296875 C-201.73002177 45.60035357 -199.69598589 43.88663831 -197.67578125 42.140625 C-197.10609619 41.65021729 -196.53641113 41.15980957 -195.94946289 40.65454102 C-194.85457242 39.70938991 -193.76358571 38.75968802 -192.67749023 37.80444336 C-188.15909714 33.91194999 -183.59789635 30.04557713 -177.4375 29.9375 C-168.98207054 32.55099638 -164.27806825 40.32084455 -159 47 C-157.66722528 48.6671134 -156.33406936 50.33392242 -155 52 C-147.67099539 49.89557316 -140.50357894 47.45953532 -133.33984375 44.8515625 C-132.22088715 44.44651993 -131.10193054 44.04147736 -129.94906616 43.62416077 C-126.91002197 42.52315315 -123.87193231 41.41956321 -120.83432388 40.3146019 C-118.92555411 39.620657 -117.01636443 38.92788043 -115.10702515 38.23550415 C-100.49230066 32.93573057 -85.89010832 27.60256632 -71.3046875 22.22265625 C-70.66989786 21.9885479 -70.03510822 21.75443954 -69.38108253 21.513237 C-62.70182584 19.04957942 -56.02434199 16.58119006 -49.34936523 14.10595703 C-43.95371517 12.10661505 -38.55244959 10.1232356 -33.14654541 8.15179443 C-31.01038645 7.36985244 -28.87628888 6.58226047 -26.74407959 5.78961182 C-23.5989614 4.62211433 -20.44708549 3.47495704 -17.29296875 2.33203125 C-15.88716301 1.80291389 -15.88716301 1.80291389 -14.45295715 1.2631073 C-9.26156579 -0.59137109 -5.49213664 -1.56449664 0 0 Z " fill="#E4A504" transform="translate(378,50)"/>
<path d="M0 0 C74.58 0 149.16 0 226 0 C226 107.58 226 215.16 226 326 C151.42 326 76.84 326 0 326 C0 218.42 0 110.84 0 0 Z " fill="#374150" transform="translate(303,91)"/>
<path d="M0 0 C0.18899368 0.58170959 0.37798737 1.16341919 0.57270813 1.76275635 C5.6552028 17.34681372 11.12612862 32.75870766 16.83877563 48.12203979 C18.21821803 51.83262904 19.59291696 55.54495451 20.96557617 59.25805664 C21.19558351 59.88023229 21.42559084 60.50240793 21.66256809 61.14343739 C22.35579644 63.01879392 23.04899203 64.89416256 23.7421875 66.76953125 C24.19404922 67.99096329 24.64591095 69.21239532 25.11146545 70.47084045 C28.76271611 80.34421484 32.39010754 90.22596721 35.97427368 100.12390137 C36.52965674 101.65682089 37.08626199 103.18929819 37.64413452 104.72131348 C38.39749079 106.79092364 39.14672731 108.8619721 39.89453125 110.93359375 C40.30550049 112.06853271 40.71646973 113.20347168 41.13989258 114.37280273 C42 117 42 117 42 119 C35.34149422 118.38114517 28.99726273 117.22746148 22.48828125 115.71484375 C20.49415363 115.26231249 18.50001261 114.80984027 16.50585938 114.35742188 C13.39823014 113.64607247 10.29110669 112.93257618 7.18432617 112.2175293 C4.16184778 111.52373258 1.13767771 110.83772274 -1.88671875 110.15234375 C-2.81183762 109.93674301 -3.73695648 109.72114227 -4.69010925 109.49900818 C-12.4433611 107.40945674 -12.4433611 107.40945674 -19.93457031 109.08569336 C-20.47694336 109.58206299 -21.01931641 110.07843262 -21.578125 110.58984375 C-22.18140625 111.12673828 -22.7846875 111.66363281 -23.40625 112.21679688 C-24.0146875 112.78462891 -24.623125 113.35246094 -25.25 113.9375 C-26.48313115 115.05215884 -27.71745151 116.16550392 -28.953125 117.27734375 C-29.49098633 117.77484131 -30.02884766 118.27233887 -30.58300781 118.78491211 C-32 120 -32 120 -34 121 C-32.63733356 125.03805866 -30.8590849 127.54368118 -27.9375 130.625 C-24.73339438 134.08420957 -21.65157731 137.58276566 -18.6875 141.25 C-15.19567292 145.56450885 -11.62423581 149.79709511 -8 154 C-3.7001015 158.98925694 0.50485878 164.04221734 4.65625 169.15625 C7.39302138 172.47686594 10.19106385 175.74043709 13 179 C17.31389366 184.0068234 21.54033706 189.07255073 25.70703125 194.203125 C29.22776941 198.49758585 32.82613134 202.72536933 36.421875 206.95703125 C37.27265625 207.96121094 38.1234375 208.96539062 39 210 C39.47501953 210.54446777 39.95003906 211.08893555 40.43945312 211.64990234 C44 215.78259054 44 215.78259054 44 218 C49.33389051 215.10445944 53.58567806 211.12612013 58.09179688 207.11914062 C62.79435668 203 62.79435668 203 65 203 C62.5990932 198.63916928 59.64022797 195.09202052 56.375 191.375 C55.28806616 190.1232603 54.20213693 188.87064759 53.1171875 187.6171875 C52.58448242 187.00198242 52.05177734 186.38677734 51.50292969 185.75292969 C49.45931309 183.36937427 47.47625854 180.93955724 45.5 178.5 C37.29620802 168.40874138 28.74586679 158.62358819 20 149 C18.3116444 147.12577039 16.62412894 145.25078359 14.9375 143.375 C14.18339844 142.53710938 13.42929688 141.69921875 12.65234375 140.8359375 C12.10707031 140.23007812 11.56179687 139.62421875 11 139 C15.78987165 136.60506417 24.34865484 139.71218546 29.53881836 140.68334961 C31.37877158 141.0177835 33.22274162 141.33086608 35.07006836 141.62182617 C37.74220582 142.04439786 40.39355932 142.53581413 43.05078125 143.04296875 C44.28227654 143.21725655 44.28227654 143.21725655 45.53865051 143.39506531 C48.12496058 143.93803108 49.82405212 144.48736188 52 146 C54.34737664 149.77572937 55.63670109 153.78606722 57 158 C57.7463358 160.02096532 58.49762225 162.04010944 59.25390625 164.05737305 C60.02642531 166.20775059 60.79581615 168.35925385 61.5625 170.51171875 C61.98668213 171.69384445 62.41086426 172.87597015 62.84790039 174.09391785 C63.75949855 176.6345187 64.6701159 179.17544576 65.57910156 181.71697998 C68.02344817 188.55003262 70.47992445 195.37872744 72.9375 202.20703125 C73.18885712 202.90562256 73.44021423 203.60421387 73.69918823 204.32397461 C79.90846253 221.57501993 86.25803923 238.77350274 92.62670898 255.96630859 C96.58079108 266.65093148 100.50242406 277.34319673 104.28515625 288.08984375 C104.61301117 289.01819031 104.94086609 289.94653687 105.27865601 290.90301514 C106.78070401 295.1587463 108.27155241 299.4176973 109.74023438 303.68505859 C110.25477442 305.15086854 110.76972092 306.61653589 111.28515625 308.08203125 C111.50397964 308.73324448 111.72280304 309.3844577 111.94825745 310.05540466 C113.31900171 313.90812273 114.83387673 316.39753238 118 319 C120.63222962 320.25436187 120.63222962 320.25436187 123 321 C112.16047352 331.95608053 100.44120923 341.90971819 88 351 C82.80577543 344.89314532 77.6161767 338.7866974 72.5625 332.5625 C68.60491812 327.69870975 64.53457554 322.94118769 60.44165039 318.19165039 C56.66665609 313.8019965 52.99271539 309.33885229 49.34375 304.84375 C46.60697951 301.52313514 43.8089705 298.25953218 41 295 C36.70027287 290.01059233 32.49514591 284.95778844 28.34375 279.84375 C25.60697951 276.52313514 22.8089705 273.25953218 20 270 C15.70027287 265.01059233 11.49514591 259.95778844 7.34375 254.84375 C4.60697951 251.52313514 1.8089705 248.25953218 -1 245 C-5.29972713 240.01059233 -9.50485409 234.95778844 -13.65625 229.84375 C-16.39302138 226.52313406 -19.19106385 223.25956291 -22 220 C-26.32172863 214.98408311 -30.55479196 209.90824701 -34.73046875 204.76953125 C-39.08505794 199.45558334 -43.55078435 194.23473234 -48 189 C-53.19219022 182.89111965 -58.38123581 176.78489359 -63.4375 170.5625 C-67.39508188 165.69870975 -71.46542446 160.94118769 -75.55834961 156.19165039 C-79.33334391 151.8019965 -83.00728461 147.33885229 -86.65625 142.84375 C-89.39302138 139.52313406 -92.19106385 136.25956291 -95 133 C-99.3072514 128.00088579 -103.52780172 122.94347031 -107.6875 117.8203125 C-112.05765205 112.49049868 -116.53456492 107.2500162 -121 102 C-119.49775154 98.26107049 -117.39834702 96.45906395 -114.25 94 C-109.79884227 90.45534437 -105.43317675 86.84208126 -101.125 83.125 C-99.93374707 82.10008218 -98.74234021 81.07534326 -97.55078125 80.05078125 C-96.96119629 79.54369629 -96.37161133 79.03661133 -95.76416016 78.51416016 C-89.09267077 72.7880908 -82.38491685 67.10820726 -75.5625 61.5625 C-70.69870975 57.60491812 -65.94118769 53.53457554 -61.19165039 49.44165039 C-56.8019965 45.66665609 -52.33885229 41.99271539 -47.84375 38.34375 C-44.52313406 35.60697862 -41.25956291 32.80893615 -38 30 C-32.99456146 25.68729954 -27.93064455 21.46156402 -22.80078125 17.296875 C-18.99655725 14.17709298 -15.24656704 10.99509171 -11.50170898 7.80444336 C-10.00524598 6.53145216 -8.50274249 5.26557225 -7 4 C-6.08992188 3.23300781 -5.17984375 2.46601563 -4.2421875 1.67578125 C-2 0 -2 0 0 0 Z " fill="#121826" transform="translate(147,138)"/>
<path d="M0 0 C0 41.91 0 83.82 0 127 C-3.4063688 125.63745248 -5.89206893 124.57887771 -8.87109375 122.671875 C-9.59997803 122.20837646 -10.3288623 121.74487793 -11.07983398 121.26733398 C-12.24687866 120.51625366 -12.24687866 120.51625366 -13.4375 119.75 C-14.25355713 119.22929932 -15.06961426 118.70859863 -15.91040039 118.17211914 C-17.67172857 117.04810383 -19.43202653 115.92247289 -21.19140625 114.79541016 C-24.12242462 112.92173934 -27.06032463 111.05927464 -30 109.19921875 C-31.97921474 107.94538839 -33.95838238 106.69148366 -35.9375 105.4375 C-36.87843506 104.84227539 -37.81937012 104.24705078 -38.78881836 103.63378906 C-39.67190674 103.07272461 -40.55499512 102.51166016 -41.46484375 101.93359375 C-42.244646 101.43915771 -43.02444824 100.94472168 -43.82788086 100.43530273 C-46 99 -46 99 -48.1328125 97.30273438 C-49.95299176 95.73426832 -49.95299176 95.73426832 -52.41015625 96.22265625 C-53.28542969 96.49980469 -54.16070312 96.77695313 -55.0625 97.0625 C-56.0215625 97.35898438 -56.980625 97.65546875 -57.96875 97.9609375 C-61.93277482 99.31973982 -65.87193722 100.73143076 -69.78515625 102.23046875 C-72 103 -72 103 -74 103 C-73.39673071 104.65267007 -72.79345857 106.3053391 -72.19018555 107.95800781 C-71.79038483 109.05327286 -71.39058411 110.1485379 -70.97866821 111.2769928 C-70.0671683 113.77395285 -69.15561779 116.27089436 -68.24398804 118.76780701 C-65.94431382 125.06667403 -63.64506448 131.36569464 -61.34780407 137.66544247 C-60.02647525 141.28880264 -58.70475199 144.91201883 -57.3828125 148.53515625 C-57.11679041 149.26427027 -56.85076832 149.99338428 -56.57668495 150.74459267 C-53.27462379 159.79287766 -49.96015146 168.83644004 -46.62535095 177.87271118 C-44.85183858 182.67894203 -43.08255989 187.48672681 -41.31338501 192.29455566 C-40.48088605 194.55265502 -39.64607459 196.80990318 -38.80892944 199.06628418 C-37.64945888 202.19185647 -36.49773831 205.32018218 -35.34765625 208.44921875 C-35.00503754 209.3660997 -34.66241882 210.28298065 -34.30941772 211.22764587 C-33.84893539 212.48720848 -33.84893539 212.48720848 -33.37915039 213.7722168 C-33.11099014 214.49708786 -32.8428299 215.22195892 -32.56654358 215.96879578 C-32 218 -32 218 -32 222 C-24.08 219.03 -16.16 216.06 -8 213 C-8.66508255 209.00950472 -9.21093536 206.00984474 -10.53125 202.33764648 C-10.84247803 201.46490585 -11.15370605 200.59216522 -11.47436523 199.69297791 C-11.81282471 198.76175613 -12.15128418 197.83053436 -12.5 196.87109375 C-12.85457275 195.88617447 -13.20914551 194.90125519 -13.57446289 193.88648987 C-14.32847124 191.79684636 -15.08512764 189.70815672 -15.84423828 187.62036133 C-16.97617222 184.50311951 -18.09610887 181.38176457 -19.21484375 178.25976562 C-23.20181015 167.2101699 -27.42173242 156.32216499 -32.16967773 145.57505798 C-32.52618408 144.76661942 -32.88269043 143.95818085 -33.25 143.12524414 C-33.56453125 142.42194473 -33.8790625 141.71864532 -34.203125 140.99403381 C-34.994263 139.01435578 -35.53407805 137.0779937 -36 135 C-32.32565368 136.36544143 -29.10013128 138.03250142 -25.76171875 140.08203125 C-24.28348633 140.98598633 -24.28348633 140.98598633 -22.77539062 141.90820312 C-21.75638672 142.53662109 -20.73738281 143.16503906 -19.6875 143.8125 C-18.68009766 144.42931641 -17.67269531 145.04613281 -16.63476562 145.68164062 C-13.75271387 147.44842284 -10.87391014 149.22000368 -8 151 C-7.33898128 151.22846682 -6.67796255 151.45693363 -5.99691296 151.69232368 C-3.3377363 152.81071402 -1.87615973 153.78420133 0 156 C1.24731472 161.45595014 1.04892649 166.9148484 0.96826172 172.47680664 C0.97259442 174.18533025 0.98047035 175.893848 0.99162292 177.6023407 C1.01211328 182.23905019 0.9837385 186.87434308 0.94721746 191.5109055 C0.91788734 196.36176518 0.93530038 201.21244102 0.94827271 206.06333923 C0.96609844 215.25259778 0.94496857 224.44131193 0.9084512 233.6304993 C0.85623943 247.12166488 0.85463178 260.61285859 0.8624897 274.10410976 C0.86305898 275.09299712 0.86362825 276.08188447 0.86421478 277.10073811 C0.86539739 279.07224665 0.86670877 281.04375513 0.86815274 283.0152635 C0.87096055 288.79384301 0.85969783 294.57218205 0.83639216 300.35071385 C0.8232216 303.94220181 0.81771175 307.53367637 0.81373024 311.12518501 C0.81001957 312.79251768 0.80281223 314.45984672 0.79187965 316.12714767 C0.77730358 318.4004887 0.7748869 320.67353443 0.77536011 322.94691467 C0.77050032 324.21986924 0.76564053 325.49282381 0.76063347 326.80435276 C0.9878222 329.83742113 1.31902474 331.50463799 3 334 C5.75600594 335.81919612 8.06315782 336.27413534 11.328125 336.4140625 C12.12734375 336.45273437 12.9265625 336.49140625 13.75 336.53125 C14.575 336.5621875 15.4 336.593125 16.25 336.625 C17.09046875 336.66367187 17.9309375 336.70234375 18.796875 336.7421875 C20.86423382 336.83615836 22.93208627 336.91915564 25 337 C22.51598549 338.65600968 20.67271435 339.59887488 17.92749023 340.60400391 C17.11332138 340.90416412 16.29915253 341.20432434 15.46031189 341.51358032 C14.14771141 341.9902565 14.14771141 341.9902565 12.80859375 342.4765625 C11.9075441 342.80667328 11.00649445 343.13678406 10.07814026 343.47689819 C8.17495041 344.17305321 6.2710357 344.8672293 4.36645508 345.55957031 C1.44346229 346.62283117 -1.47663712 347.69376055 -4.39648438 348.765625 C-6.24462384 349.4405639 -8.09292569 350.11505834 -9.94140625 350.7890625 C-10.81849747 351.11089508 -11.69558868 351.43272766 -12.59925842 351.76431274 C-13.41027512 352.05816864 -14.22129181 352.35202454 -15.05688477 352.65478516 C-15.77175552 352.91522614 -16.48662628 353.17566711 -17.22315979 353.44400024 C-19 354 -19 354 -21 354 C-21.34347725 353.04354332 -21.34347725 353.04354332 -21.69389343 352.06776428 C-24.68824121 343.73140836 -27.68648701 335.39645845 -30.6875 327.0625 C-30.9342107 326.37735447 -31.1809214 325.69220894 -31.43510818 324.98630142 C-38.68528947 304.85519428 -46.01271871 284.75499044 -53.4375 264.6875 C-60.96813054 244.33157643 -68.36736419 223.93228881 -75.6875 203.5 C-82.77774416 183.7098861 -89.92006931 163.94144829 -97.19723511 144.21905518 C-101.69465223 132.03004795 -106.15752241 119.82925965 -110.5703125 107.609375 C-110.80703297 106.95409191 -111.04375343 106.29880882 -111.28764725 105.62366867 C-113.3960428 99.78713248 -115.50406648 93.95046459 -117.60406494 88.11090088 C-118.88498002 84.5497328 -120.16810399 80.98937594 -121.453125 77.4296875 C-121.85203949 76.32444733 -122.25095398 75.21920715 -122.66195679 74.08047485 C-125.28485588 66.85655325 -128.05083002 59.7135076 -131.03027344 52.62939453 C-132 50 -132 50 -132 47 C-123.83537885 43.97363042 -115.66847983 40.95343859 -107.5 37.9375 C-106.56490538 37.59223644 -106.56490538 37.59223644 -105.61091995 37.23999786 C-80.98129495 28.148329 -56.29042661 19.23190527 -31.57421875 10.37866211 C-30.57657171 10.02123948 -30.57657171 10.02123948 -29.55877018 9.65659618 C-26.44224088 8.54011836 -23.3254429 7.42441173 -20.20811462 6.31016541 C-19.10939529 5.91696609 -18.01067596 5.52376678 -16.87866211 5.11865234 C-15.86150116 4.75503601 -14.84434021 4.39141968 -13.7963562 4.01678467 C-11.31345537 3.11397568 -8.85080983 2.17152174 -6.38891602 1.21337891 C-3 0 -3 0 0 0 Z " fill="#202936" transform="translate(291,92)"/>
<path d="M0 0 C5.70934414 -0.01009297 11.41863495 -0.02778459 17.12794942 -0.04852492 C24.16122753 -0.07385184 31.19442712 -0.08815959 38.22775245 -0.08864164 C41.8677817 -0.08912992 45.50763893 -0.09444211 49.14762753 -0.11240393 C53.13458536 -0.13182268 57.12132226 -0.12769902 61.10832661 -0.1212483 C62.28158844 -0.13046592 63.45485026 -0.13968354 64.66366547 -0.14918047 C65.73917318 -0.14360849 66.81468089 -0.1380365 67.92277974 -0.13229567 C69.31647786 -0.13449551 69.31647786 -0.13449551 70.7383315 -0.13673979 C74.69519805 0.43176124 77.24865877 2.07369631 79.95016503 4.98333049 C81.69511384 7.83710255 81.70403686 9.65711719 81.70739335 12.99209303 C81.71583329 14.17436143 81.72427323 15.35662984 81.73296893 16.57472456 C81.72695888 17.87480311 81.72094884 19.17488167 81.71475667 20.51435655 C81.71892841 21.90843221 81.72440505 23.30250446 81.73107648 24.6965704 C81.74557095 28.53167927 81.74127398 32.36657398 81.73390967 36.20169479 C81.72919015 40.33606711 81.74167704 44.47039228 81.75192708 48.60474962 C81.76914433 56.70593119 81.76994904 64.8070353 81.76471417 72.90823042 C81.76067669 79.49133885 81.762111 86.07442435 81.76746243 92.65753168 C81.76821085 93.5936182 81.76895928 94.52970473 81.76973038 95.49415751 C81.77126182 97.39566873 81.77280016 99.29717993 81.77434535 101.19869114 C81.78808096 119.04039632 81.78262524 136.88205768 81.77116013 154.72376186 C81.7612265 171.05461915 81.77416879 187.38536316 81.79809432 203.71620297 C81.82246314 220.47557947 81.83209867 237.23490316 81.8254416 253.99429703 C81.82194445 263.40709347 81.82421403 272.81980277 81.84169263 282.23258585 C81.8563869 290.24548518 81.8570865 298.25823601 81.83962172 306.27113234 C81.83108638 310.36088575 81.82902356 314.45037356 81.84427327 318.54011339 C81.85805547 322.28256196 81.85344151 326.02451577 81.83403403 329.76693524 C81.82845997 331.7652729 81.84259935 333.76363534 81.85738814 335.76192605 C81.84757385 336.94680221 81.83775956 338.13167836 81.82764786 339.35245985 C81.82754053 340.37515673 81.82743319 341.39785361 81.8273226 342.4515413 C81.19296641 345.98146311 79.77770276 347.6662194 77.32707661 350.23519701 C74.09235153 351.85255955 70.55006928 351.37180676 66.99644917 351.36218065 C66.12413191 351.36374064 65.25181464 351.36530063 64.35306352 351.36690789 C61.41176716 351.37091601 58.47052186 351.36772873 55.52922505 351.36459154 C53.42672128 351.36594586 51.32421775 351.36772597 49.22171468 351.3699016 C43.49119397 351.37447785 37.76069118 351.37268411 32.03017014 351.36952251 C26.02263212 351.36699326 20.01509565 351.36933865 14.00755757 351.37090868 C3.8957994 351.37273152 -6.21595148 351.370324 -16.32770854 351.3655681 C-27.97094571 351.36015465 -39.61416528 351.3618663 -51.257402 351.36739451 C-61.27299148 351.37195766 -71.28857571 351.37255973 -81.3041659 351.36995584 C-87.27627265 351.36840679 -93.2483712 351.36816068 -99.2204774 351.37149233 C-104.85766909 351.37441665 -110.49483859 351.37231305 -116.13202792 351.36659807 C-118.18363659 351.36529334 -120.23524718 351.36562479 -122.28685504 351.36786073 C-128.74997617 351.37424563 -135.21053909 351.3336939 -141.67292339 351.23519701 C-142.67468073 351.22206138 -143.67643808 351.20892575 -144.7085517 351.19539207 C-147.7474261 351.14563065 -150.78407451 351.06599128 -153.82203227 350.97710985 C-155.21647308 350.95671134 -155.21647308 350.95671134 -156.6390844 350.93590075 C-163.05402345 350.70094371 -163.05402345 350.70094371 -166.22610408 348.31382746 C-168.88755426 344.4901493 -168.78002365 342.11104819 -168.73693401 337.44280809 C-168.73199406 336.73620566 -168.72705412 336.02960322 -168.72196448 335.30158859 C-168.71054434 333.74808475 -168.69680544 332.19459671 -168.68108875 330.64113039 C-168.64665922 327.2290396 -168.62331882 323.81689567 -168.59910196 320.40471953 C-168.5859126 318.56655745 -168.57212594 316.72839958 -168.55778855 314.89024609 C-168.46727091 303.10138416 -168.44920121 291.3123135 -168.42686146 279.52315968 C-168.40452334 268.03809816 -168.35969821 256.5542101 -168.24445659 245.06966966 C-168.15310252 235.9522699 -168.11114366 226.83616356 -168.12732184 217.71829849 C-168.13405414 212.89234975 -168.11592393 208.06938421 -168.03807193 203.24399751 C-167.9653761 198.70035593 -167.95845893 194.16129845 -168.00130779 189.61732286 C-168.00546807 187.95317749 -167.98579945 186.28876978 -167.94012958 184.62524599 C-167.80745066 179.49736421 -167.89585759 175.08681084 -169.67292339 170.23519701 C-173.49271453 166.2153799 -178.661506 164.34767748 -183.67292339 162.23519701 C-185.68148395 161.06308776 -187.67321676 159.86080896 -189.63386089 158.61019701 C-190.53620464 158.04945482 -191.43854839 157.48871263 -192.36823589 156.91097826 C-193.25253276 156.35797045 -194.13682964 155.80496263 -195.04792339 155.23519701 C-195.98636089 154.6512517 -196.92479839 154.06730638 -197.89167339 153.46566576 C-200.15352035 152.05778142 -202.41392107 150.64763934 -204.67292339 149.23519701 C-204.29522807 149.9815642 -203.91753276 150.72793138 -203.52839214 151.49691576 C-197.8703822 163.11769963 -193.38077548 175.15988044 -188.892299 187.27046007 C-187.37672629 191.35815273 -185.83897683 195.43665962 -184.28419048 199.50959581 C-183.23924603 202.25248516 -182.20505546 204.99935086 -181.17304546 207.74712938 C-180.67614602 209.0640746 -180.17513654 210.37947694 -179.66987163 211.69323534 C-178.96637525 213.52565049 -178.28020519 215.36468901 -177.59479839 217.20394701 C-177.19873393 218.25002123 -176.80266948 219.29609545 -176.39460307 220.37386888 C-175.6021965 223.51561621 -175.49749341 225.21659837 -176.67292339 228.23519701 C-178.4512437 229.42953295 -178.4512437 229.42953295 -180.75104839 230.21957201 C-181.99821635 230.66236498 -181.99821635 230.66236498 -183.27057964 231.11410326 C-184.14585307 231.4015642 -185.02112651 231.68902513 -185.92292339 231.98519701 C-186.78272807 232.2881267 -187.64253276 232.59105638 -188.52839214 232.90316576 C-192.55866608 234.30041019 -196.47294662 235.45824766 -200.67292339 236.23519701 C-201.04844341 235.15399584 -201.42396343 234.07279466 -201.81086284 232.95882982 C-207.14587055 217.63804929 -212.61597786 202.36602652 -218.10127956 187.09859651 C-218.86760315 184.96520907 -219.63336767 182.8316216 -220.39902812 180.69799608 C-226.64820476 163.28753172 -232.91257656 145.88496364 -239.57404643 128.62679857 C-239.99726177 127.52174974 -240.4204771 126.41670091 -240.85651714 125.27816576 C-241.21286235 124.36059496 -241.56920757 123.44302416 -241.93635112 122.49764818 C-242.67292339 120.23519701 -242.67292339 120.23519701 -242.67292339 117.23519701 C-239.09880356 115.83534828 -235.51253905 114.46976394 -231.92292339 113.11019701 C-230.90714214 112.7118767 -229.89136089 112.31355638 -228.84479839 111.90316576 C-227.86511089 111.53578295 -226.88542339 111.16840013 -225.87604839 110.78988451 C-224.97531596 110.44425462 -224.07458354 110.09862474 -223.1465562 109.74252123 C-220.12525865 109.12287493 -219.21900862 109.58635026 -216.67292339 111.23519701 C-216.06682231 111.58574144 -215.46072124 111.93628587 -214.83625346 112.29745287 C-212.71779326 113.58677227 -210.59983947 114.87675009 -208.48542339 116.17269701 C-207.69240825 116.65778734 -206.89939311 117.14287767 -206.08234721 117.64266771 C-199.97641803 121.39527632 -193.93892793 125.24551145 -187.94758159 129.17831224 C-183.64299866 131.99564835 -179.28539905 134.71955956 -174.90070659 137.41024584 C-174.30031818 137.779172 -173.69992976 138.14809816 -173.08134776 138.5282039 C-171.6121191 139.43093564 -170.1425553 140.3331219 -168.67292339 141.23519701 C-168.67661056 140.54920584 -168.68029773 139.86321468 -168.68409663 139.15643591 C-168.77243623 122.46431449 -168.83862733 105.77226713 -168.88017207 89.07996649 C-168.90079685 81.00768254 -168.9289157 72.93555463 -168.9746812 64.86337084 C-169.01455171 57.82759799 -169.04035682 50.79193815 -169.04927737 43.75605547 C-169.05449181 40.03059499 -169.06674544 36.30545781 -169.09584361 32.58010095 C-169.1280652 28.42112318 -169.12888267 24.26270738 -169.12702495 20.10360521 C-169.14140605 18.86858263 -169.15578716 17.63356004 -169.17060405 16.36111253 C-169.16510539 15.22674257 -169.15960674 14.09237261 -169.15394145 12.92362779 C-169.15762862 11.94007468 -169.1613158 10.95652157 -169.1651147 9.94316381 C-168.53231205 6.46157337 -167.08382239 4.77503032 -164.67292339 2.23519701 C-161.81930062 0.80838562 -159.37049753 1.07067156 -156.17805034 1.02987474 C-155.49738506 1.01998647 -154.81671977 1.01009821 -154.11542827 0.9999103 C-151.79739008 0.96781395 -149.47933614 0.94316609 -147.16120464 0.91879076 C-145.4698921 0.8978518 -143.77858255 0.87667027 -142.0872758 0.85526842 C-136.38674016 0.785768 -130.68610289 0.7289177 -124.98542339 0.67269701 C-122.99738618 0.65232108 -121.00934907 0.63193526 -119.02131206 0.61153978 C-79.34878678 0.21272755 -39.67431206 0.06539358 0 0 Z M-156.67292339 13.23519701 C-156.67292339 120.81519701 -156.67292339 228.39519701 -156.67292339 339.23519701 C-82.09292339 339.23519701 -7.51292339 339.23519701 69.32707661 339.23519701 C69.32707661 231.65519701 69.32707661 124.07519701 69.32707661 13.23519701 C-5.25292339 13.23519701 -79.83292339 13.23519701 -156.67292339 13.23519701 Z " fill="#F8BD24" transform="translate(459.67292338609695,77.7648029923439)"/>
<path d="M0 0 C25 0 25 0 30.8125 5 C31.87829292 6.69494815 32.94208107 8.39339286 33.91455078 10.14355469 C35.88893626 13.52034892 38.36544049 16.53173469 40.75 19.625 C41.76644545 20.98930664 42.78072698 22.3552278 43.79296875 23.72265625 C47.14782431 28.22317367 50.60103439 32.64376858 54.0625 37.0625 C60.21155177 44.9210392 66.1554707 52.91307987 72 61 C75.74980092 57.39157398 79.01110439 53.61703754 82.1875 49.5 C82.6630835 48.88906494 83.13866699 48.27812988 83.62866211 47.64868164 C85.08988453 45.76892907 86.54575343 43.88515285 88 42 C88.43538086 41.43651855 88.87076172 40.87303711 89.31933594 40.29248047 C91.80817877 37.06964967 94.28894775 33.84069847 96.76611328 30.60888672 C99.25143718 27.36822892 101.74283217 24.13223036 104.23486328 20.89672852 C106.41199444 18.06903449 108.5831789 15.23702466 110.74609375 12.3984375 C111.19662109 11.80869141 111.64714844 11.21894531 112.11132812 10.61132812 C112.97251082 9.48380026 113.83198711 8.35496629 114.68945312 7.22460938 C116.67928557 4.62302679 118.67436901 2.32563099 121 0 C128.92 0 136.84 0 145 0 C145 41.58 145 83.16 145 126 C136.42 126 127.84 126 119 126 C119 98.94 119 71.88 119 44 C110.65243964 53.80044044 110.65243964 53.80044044 102.625 63.8125 C98.51878181 69.09170717 94.34571727 74.31186031 90.125 79.5 C89.58955566 80.15846924 89.05411133 80.81693848 88.50244141 81.49536133 C87.48326224 82.74608497 86.45957902 83.99315512 85.4309082 85.23608398 C84.49831687 86.38571244 83.5913927 87.55679637 82.71557617 88.75024414 C80.72076287 91.39742924 79.2433439 92.89857882 76.16015625 94.18359375 C71.56820146 94.55998349 67.92439743 94.57908696 64.20947266 91.53076172 C60.26014618 87.44088982 56.9323519 82.87731162 53.62841797 78.26123047 C51.33154705 75.07178243 48.88610882 72.010731 46.4375 68.9375 C45.5617665 67.81567638 44.68677575 66.69327257 43.8125 65.5703125 C40.0259606 60.73590852 36.13165168 55.98828705 32.23803711 51.23999023 C31.7147583 50.60005127 31.19147949 49.9601123 30.65234375 49.30078125 C30.18820068 48.73528564 29.72405762 48.16979004 29.24584961 47.5871582 C28.08928002 46.11373886 27.03902584 44.55853877 26 43 C26.07105453 43.89324478 26.14210907 44.78648956 26.21531677 45.70680237 C26.92086444 55.2598876 27.13344917 64.76157123 27.09765625 74.33984375 C27.09578447 75.84298149 27.09436418 77.34611985 27.09336853 78.84925842 C27.08960305 82.75025199 27.079826 86.65120659 27.06866455 90.55218506 C27.05831986 94.55496697 27.05384333 98.55775536 27.04882812 102.56054688 C27.03819651 110.37371749 27.02065038 118.18684826 27 126 C18.09 126 9.18 126 0 126 C0 84.42 0 42.84 0 0 Z " fill="#F8BD24" transform="translate(343,160)"/>
<path d="M0 0 C6.20980147 4.04987052 10.44720608 10.23864623 15 16 C15.75023437 16.8971875 16.50046875 17.794375 17.2734375 18.71875 C19 21 19 21 19 23 C18.30223953 23.25198654 17.60447906 23.50397308 16.88557434 23.76359558 C10.25215761 26.15943323 3.61921404 28.55657542 -3.0132246 30.95511913 C-6.42156885 32.18765682 -9.83008269 33.41972069 -13.23901367 34.65063477 C-16.53978072 35.84251344 -19.84006364 37.03572407 -23.14003944 38.22979164 C-24.98774657 38.89799815 -26.83593002 39.56488705 -28.68412781 40.23173523 C-30.99196353 41.06728689 -33.298038 41.90772261 -35.60214233 42.75350952 C-37.93677025 43.60995842 -40.27595744 44.45404893 -42.61880493 45.28775024 C-43.77496307 45.71010956 -44.93112122 46.13246887 -46.12231445 46.56762695 C-47.1565303 46.93942581 -48.19074615 47.31122467 -49.25630188 47.69429016 C-52.19171876 49.09123783 -53.9145193 50.52404469 -56 53 C-56.33570845 54.33273731 -56.66919851 55.66603626 -57 57 C-58.57421875 58.5 -58.57421875 58.5 -60.6875 60 C-64.91089044 63.12893473 -68.90634105 66.43459627 -72.875 69.875 C-77.03990326 73.47335188 -81.22498365 77.03206639 -85.5 80.5 C-89.72792288 83.93207857 -93.87531796 87.44546839 -98 91 C-102.98940767 95.29972713 -108.04221156 99.50485409 -113.15625 103.65625 C-116.47686594 106.39302138 -119.74043709 109.19106385 -123 112 C-128.01591689 116.32172863 -133.09175299 120.55479196 -138.23046875 124.73046875 C-141.30420786 127.2492874 -144.34380521 129.80528952 -147.375 132.375 C-147.91688965 132.83438965 -148.4587793 133.2937793 -149.01708984 133.76708984 C-151.24030565 135.6536341 -153.46199736 137.54195596 -155.68212891 139.43212891 C-162.69875078 145.40532633 -169.76021683 151.29642364 -177 157 C-175.34815267 160.91723795 -172.69581405 163.89095538 -169.9375 167.0625 C-168.93280906 168.2323995 -167.92891318 169.40298221 -166.92578125 170.57421875 C-166.42771973 171.15478027 -165.9296582 171.7353418 -165.41650391 172.33349609 C-163.44760287 174.64989018 -161.53573094 177.01051477 -159.625 179.375 C-155.45843577 184.49733524 -151.13798719 189.47417378 -146.79956055 194.45043945 C-142.8775046 198.95939957 -139.06968135 203.54698064 -135.30859375 208.19140625 C-132.58655815 211.50298593 -129.79856861 214.7531 -127 218 C-122.67821817 223.01586975 -118.44520648 228.0917549 -114.26953125 233.23046875 C-109.91494206 238.54441666 -105.44921565 243.76526766 -101 249 C-95.80780978 255.10888035 -90.61876419 261.21510641 -85.5625 267.4375 C-81.60491812 272.30129025 -77.53457554 277.05881231 -73.44165039 281.80834961 C-69.66665609 286.1980035 -65.99271539 290.66114771 -62.34375 295.15625 C-59.60697862 298.47686594 -56.80893615 301.74043709 -54 305 C-49.67827137 310.01591689 -45.44520804 315.09175299 -41.26953125 320.23046875 C-36.91494206 325.54441666 -32.44921565 330.76526766 -28 336 C-22.80780978 342.10888035 -17.61876419 348.21510641 -12.5625 354.4375 C-8.60491812 359.30129025 -4.53457554 364.05881231 -0.44165039 368.80834961 C3.32977307 373.19385124 7.00126027 377.65182733 10.64453125 382.14453125 C13.44240742 385.53631812 16.31227744 388.86131405 19.1875 392.1875 C23.33409832 396.98875587 27.29030959 401.84765221 31 407 C37.06873222 402.66519127 42.6561943 397.88459493 48.26416016 392.98095703 C53.74510777 388.19561 59.33061522 383.56143848 65 379 C64.34 378.34 63.68 377.68 63 377 C63.57758057 376.91000732 64.15516113 376.82001465 64.75024414 376.72729492 C73.17485693 375.24735159 80.77782769 372.17133749 88.69335938 369.01367188 C90.23540039 368.41329102 90.23540039 368.41329102 91.80859375 367.80078125 C92.73470459 367.43122314 93.66081543 367.06166504 94.61499023 366.6809082 C97 366 97 366 100 367 C99.21238281 367.66644531 98.42476563 368.33289063 97.61328125 369.01953125 C97.09362793 369.4592627 96.57397461 369.89899414 96.03857422 370.35205078 C94.87233151 371.33882078 93.70598777 372.32547138 92.53955078 373.31201172 C89.56701332 375.8263791 86.59584138 378.34230454 83.62890625 380.86328125 C78.64099337 385.098386 73.64095043 389.3107943 68.5625 393.4375 C64.95820667 396.36696918 61.41520158 399.35350469 57.90625 402.39550781 C52.69356547 406.90802364 47.4463391 411.37995632 42.0625 415.6875 C41.06347656 416.49574219 40.06445312 417.30398438 39.03515625 418.13671875 C35.4799097 420.31928324 33.1666033 420.94879035 29 421 C24.29879854 419.32306467 21.8167555 417.04157293 18.8125 413.125 C18.04292969 412.1453125 17.27335938 411.165625 16.48046875 410.15625 C16.07747559 409.63933594 15.67448242 409.12242187 15.25927734 408.58984375 C13.11288456 405.88001245 10.86712042 403.25569112 8.625 400.625 C7.69263672 399.52610242 6.76034563 398.42714359 5.828125 397.328125 C4.88553041 396.21865336 3.94282178 395.10927859 3 394 C-2.19219022 387.89111965 -7.38123581 381.78489359 -12.4375 375.5625 C-15.89274151 371.31607618 -19.42697834 367.14703706 -23 363 C-27.32167542 357.98403597 -31.55479041 352.90824892 -35.73046875 347.76953125 C-40.08505794 342.45558334 -44.55078435 337.23473234 -49 332 C-54.19219022 325.89111965 -59.38123581 319.78489359 -64.4375 313.5625 C-68.39508188 308.69870975 -72.46542446 303.94118769 -76.55834961 299.19165039 C-80.33334391 294.8019965 -84.00728461 290.33885229 -87.65625 285.84375 C-90.39302138 282.52313406 -93.19106385 279.25956291 -96 276 C-100.32172863 270.98408311 -104.55479196 265.90824701 -108.73046875 260.76953125 C-113.08505794 255.45558334 -117.55078435 250.23473234 -122 245 C-127.19219022 238.89111965 -132.38123581 232.78489359 -137.4375 226.5625 C-141.39508188 221.69870975 -145.46542446 216.94118769 -149.55834961 212.19165039 C-153.33334391 207.8019965 -157.00728461 203.33885229 -160.65625 198.84375 C-163.39302494 195.52312974 -166.19120134 192.25968592 -169 189 C-173.39171526 183.89884848 -177.74009479 178.77044299 -181.953125 173.51953125 C-183.30085624 171.86058726 -184.68609544 170.231319 -186.109375 168.63671875 C-189.96440845 164.17259001 -191.78049739 161.11296869 -191.63671875 155.140625 C-190.14899364 150.13894794 -186.01720323 147.00308105 -182.0625 143.875 C-180.60650391 142.70710938 -180.60650391 142.70710938 -179.12109375 141.515625 C-178.61046387 141.10634766 -178.09983398 140.69707031 -177.57373047 140.27539062 C-174.88928939 138.09985228 -172.25791103 135.86239915 -169.625 133.625 C-169.08319092 133.16544922 -168.54138184 132.70589844 -167.9831543 132.23242188 C-166.3214104 130.82242765 -164.66056473 129.41138268 -163 128 C-156.89111965 122.80780978 -150.78489359 117.61876419 -144.5625 112.5625 C-140.31607618 109.10725849 -136.14703706 105.57302166 -132 102 C-126.98403597 97.67832458 -121.90824892 93.44520959 -116.76953125 89.26953125 C-111.45558334 84.91494206 -106.23473234 80.44921565 -101 76 C-94.89111965 70.80780978 -88.78489359 65.61876419 -82.5625 60.5625 C-77.69870975 56.60491812 -72.94118769 52.53457554 -68.19165039 48.44165039 C-63.8019965 44.66665609 -59.33885229 40.99271539 -54.84375 37.34375 C-51.52313406 34.60697862 -48.25956291 31.80893615 -45 29 C-39.99299404 24.68594905 -34.93054274 20.4555021 -29.79296875 16.296875 C-27.73002177 14.60035357 -25.69598589 12.88663831 -23.67578125 11.140625 C-23.10609619 10.65021729 -22.53641113 10.15980957 -21.94946289 9.65454102 C-20.85457242 8.70938991 -19.76358571 7.75968802 -18.67749023 6.80444336 C-12.98499903 1.90049104 -7.81240018 -2.41474187 0 0 Z " fill="#B48303" transform="translate(204,81)"/>
<path d="M0 0 C0.90915161 0.52581665 0.90915161 0.52581665 1.83666992 1.06225586 C3.95513012 2.35157526 6.07308392 3.64155308 8.1875 4.9375 C8.98051514 5.42259033 9.77353027 5.90768066 10.59057617 6.4074707 C16.76698916 10.20339756 22.9273203 14.03621875 28.91650391 18.12329102 C32.1948533 20.3368542 35.19417563 22.1802441 38.953125 23.44921875 C43.07681501 25.07816556 45.08738837 26.66990285 48 30 C48.73730469 33.28955078 48.73730469 33.28955078 48.796875 36.9453125 C48.82322021 38.25387207 48.84956543 39.56243164 48.87670898 40.91064453 C48.82373061 46.95452625 48.4902163 52.97585087 48 59 C40.39118353 55.338854 33.14307464 51.41050279 26.0625 46.8125 C24.44948148 45.77693441 22.83620795 44.74176588 21.22265625 43.70703125 C20.48934082 43.23475098 19.75602539 42.7624707 19.00048828 42.27587891 C16.69364621 40.80461253 14.35865337 39.38660228 12 38 C12.37769531 38.74636719 12.75539062 39.49273437 13.14453125 40.26171875 C18.80254118 51.88250262 23.29214791 63.92468343 27.78062439 76.03526306 C29.2961971 80.12295573 30.83394656 84.20146261 32.38873291 88.2743988 C33.43367736 91.01728816 34.46786793 93.76415385 35.49987793 96.51193237 C35.99677736 97.82887759 36.49778684 99.14427994 37.00305176 100.45803833 C37.70654813 102.29045348 38.3927182 104.12949201 39.078125 105.96875 C39.47418945 107.01482422 39.87025391 108.06089844 40.27832031 109.13867188 C41.07072689 112.2804192 41.17542998 113.98140136 40 117 C38.22167969 118.19433594 38.22167969 118.19433594 35.921875 118.984375 C34.67470703 119.42716797 34.67470703 119.42716797 33.40234375 119.87890625 C32.52707031 120.16636719 31.65179688 120.45382812 30.75 120.75 C29.89019531 121.05292969 29.03039062 121.35585938 28.14453125 121.66796875 C24.11425731 123.06521318 20.19997676 124.22305066 16 125 C15.62447998 123.91879883 15.24895996 122.83759766 14.86206055 121.72363281 C9.52705284 106.40285228 4.05694553 91.13082952 -1.42835617 75.86339951 C-2.19467977 73.73001206 -2.96044428 71.5964246 -3.72610474 69.46279907 C-9.97528137 52.05233472 -16.23965318 34.64976663 -22.90112305 17.39160156 C-23.32433838 16.28655273 -23.74755371 15.18150391 -24.18359375 14.04296875 C-24.53993896 13.12539795 -24.89628418 12.20782715 -25.26342773 11.26245117 C-26 9 -26 9 -26 6 C-22.42588017 4.60015127 -18.83961566 3.23456693 -15.25 1.875 C-14.23421875 1.47667969 -13.2184375 1.07835937 -12.171875 0.66796875 C-10.70234375 0.11689453 -10.70234375 0.11689453 -9.203125 -0.4453125 C-8.30239258 -0.79094238 -7.40166016 -1.13657227 -6.47363281 -1.49267578 C-3.45233526 -2.11232208 -2.54608523 -1.64884675 0 0 Z " fill="#E6A604" transform="translate(243,189)"/>
<path d="M0 0 C2.26302568 0.46569621 4.53049672 0.91027312 6.80175781 1.33398438 C25.67766901 4.86675617 25.67766901 4.86675617 30.02905273 9.65795898 C31.35223379 12.77975086 32.01141812 15.53912259 32.50976562 18.8840332 C33.00583056 20.37915198 33.52963155 21.86561795 34.09179688 23.3371582 C34.49785156 24.59012695 34.90390625 25.8430957 35.32226562 27.1340332 C35.53818359 27.79532227 35.75410156 28.45661133 35.9765625 29.13793945 C36.49198171 30.71855836 37.00157557 32.30107523 37.50976562 33.8840332 C29.03965947 33.13639255 20.77621818 31.47097193 12.44726562 29.8215332 C10.99485728 29.53669321 9.54238377 29.25218532 8.08984375 28.96801758 C4.56239151 28.27718299 1.03584223 27.5818594 -2.49023438 26.8840332 C-2.05267822 27.34140869 -1.61512207 27.79878418 -1.16430664 28.27001953 C13.65532488 43.79469858 13.65532488 43.79469858 20.24023438 52.0793457 C23.08020689 55.58898471 26.0401621 58.98401544 29.00976562 62.3840332 C33.6303246 67.68204256 38.15075397 73.03669772 42.56445312 78.5090332 C44.34853777 80.68719277 46.19397961 82.78734184 48.07226562 84.8840332 C50.50976562 87.8840332 50.50976562 87.8840332 50.50976562 90.8840332 C48.34960938 92.93481445 48.34960938 92.93481445 45.44726562 95.1965332 C42.05113176 97.87148034 38.71783601 100.54892124 35.50976562 103.4465332 C32.50976562 105.8840332 32.50976562 105.8840332 29.50976562 105.8840332 C27.88867188 104.1887207 27.88867188 104.1887207 26.07226562 101.7590332 C22.69382677 97.36830477 19.19768582 93.1322196 15.57226562 88.9465332 C11.99536028 84.80215681 8.45975991 80.63547806 5.00976562 76.3840332 C1.57768705 72.15611032 -1.93570276 68.00871525 -5.49023438 63.8840332 C-9.7899615 58.89462553 -13.99508846 53.84182165 -18.14648438 48.7277832 C-20.88325842 45.40716403 -23.68140132 42.14368836 -26.49023438 38.8840332 C-30.8578375 33.81188919 -35.16681786 28.70112032 -39.37304688 23.4934082 C-40.84825318 21.67525726 -42.34482308 19.87432114 -43.85742188 18.0871582 C-44.6025 17.19512695 -45.34757812 16.3030957 -46.11523438 15.3840332 C-46.788125 14.5899707 -47.46101563 13.7959082 -48.15429688 12.9777832 C-48.59515625 12.2868457 -49.03601563 11.5959082 -49.49023438 10.8840332 C-48.20759745 7.03612243 -46.40056963 5.95198615 -43.24023438 3.4465332 C-42.28632812 2.68469727 -41.33242187 1.92286133 -40.34960938 1.13793945 C-39.40601562 0.39415039 -38.46242188 -0.34963867 -37.49023438 -1.1159668 C-36.77351563 -1.89069336 -36.05679688 -2.66541992 -35.31835938 -3.46362305 C-26.67862822 -8.51142177 -9.31467423 -1.95730363 0 0 Z " fill="#B48303" transform="translate(161.490234375,250.115966796875)"/>
<path d="M0 0 C3.34645793 0.11305601 4.2408555 1.254358 6.578125 3.72265625 C7.47840364 4.82814546 8.3687786 5.94176057 9.25 7.0625 C9.93835938 7.91424805 9.93835938 7.91424805 10.640625 8.78320312 C11.76900148 10.1819198 12.8856663 11.59007014 14 13 C11.28058667 15.18974516 8.81291132 16.62693459 5.53857422 17.82519531 C4.66441864 18.14852844 3.79026306 18.47186157 2.88961792 18.80499268 C1.95409088 19.14262634 1.01856384 19.48026001 0.0546875 19.828125 C-0.91153534 20.18138855 -1.87775818 20.5346521 -2.8732605 20.89862061 C-4.91118348 21.64152866 -6.95037133 22.38097494 -8.99072266 23.1171875 C-12.12413858 24.24968866 -15.2516319 25.39753905 -18.37890625 26.546875 C-20.35903721 27.26655508 -22.33949507 27.98533649 -24.3203125 28.703125 C-25.259888 29.04885559 -26.1994635 29.39458618 -27.16751099 29.75079346 C-28.03536224 30.06151794 -28.9032135 30.37224243 -29.79736328 30.69238281 C-30.56251251 30.96979309 -31.32766174 31.24720337 -32.11599731 31.53302002 C-34 32 -34 32 -36 31 C-29.79227962 25.24855307 -23.50687494 19.69829204 -16.921875 14.37890625 C-13.5391898 11.62482164 -10.20314789 8.81954097 -6.875 6 C-6.30604004 5.51861572 -5.73708008 5.03723145 -5.15087891 4.54125977 C-2.51234686 2.34026527 -2.51234686 2.34026527 0 0 Z " fill="#151B26" transform="translate(197,94)"/>
<path d="M0 0 C0.84161854 2.08000011 1.67300763 4.16414146 2.5 6.25 C2.9640625 7.41015625 3.428125 8.5703125 3.90625 9.765625 C5 13 5 13 5 17 C-11.5 17 -28 17 -45 17 C-42.92042511 14.92042511 -41.74952612 14.38461534 -39.04101562 13.39599609 C-38.22677124 13.09583588 -37.41252686 12.79567566 -36.5736084 12.48641968 C-35.69338013 12.16863556 -34.81315186 11.85085144 -33.90625 11.5234375 C-32.5525531 11.02827133 -32.5525531 11.02827133 -31.17150879 10.52310181 C-29.2626083 9.82621244 -27.35270689 9.13205964 -25.44189453 8.44042969 C-22.50955089 7.37845893 -19.58075831 6.30712643 -16.65234375 5.234375 C-14.79968217 4.55933842 -12.94682407 3.88484089 -11.09375 3.2109375 C-10.21352173 2.88910492 -9.33329346 2.56727234 -8.4263916 2.23568726 C-7.61214722 1.94183136 -6.79790283 1.64797546 -5.95898438 1.34521484 C-5.24109741 1.08477386 -4.52321045 0.82433289 -3.78356934 0.55599976 C-2 0 -2 0 0 0 Z " fill="#2A3034" transform="translate(372,62)"/>
</svg>
