<svg width="550" height="550" viewBox="0 0 550 550" fill="none" xmlns="http://www.w3.org/2000/svg">
<circle cx="275" cy="275" r="250" fill="#374151"/>
<circle cx="275" cy="275" r="207" stroke="#FBBF24" stroke-width="6"/>
<line x1="25" y1="275" x2="525" y2="275" stroke="#FBBF24" stroke-width="6"/>
<line x1="125.879" y1="421.879" x2="421.879" y2="125.879" stroke="#FBBF24" stroke-width="6"/>
<line x1="128.121" y1="125.879" x2="424.121" y2="421.879" stroke="#FBBF24" stroke-width="6"/>
<line x1="275" y1="525" x2="275" y2="25" stroke="#FBBF24" stroke-width="6"/>
<path d="M146.5 116.5C140 126.5 151 144.5 159 153L134 127.5C138 123.5 141.5 120.5 146.5 116.5Z" fill="#FBBF24"/>
<path d="M118.25 143.75C128.25 137.25 146.25 148.25 154.75 156.25L129.25 131.25C125.25 135.25 122.25 138.75 118.25 143.75Z" fill="#FBBF24"/>
<path d="M431.5 144C421.5 137.5 403.5 148.5 395 156.5L420.5 131.5C424.5 135.5 427.5 139 431.5 144Z" fill="#FBBF24"/>
<path d="M404.25 115.75C410.75 125.75 399.75 143.75 391.75 152.25L416.75 126.75C412.75 122.75 409.25 119.75 404.25 115.75Z" fill="#FBBF24"/>
<path d="M116.5 403.5C126.5 410 144.5 399 153 391L127.5 416C123.5 412 120.5 408.5 116.5 403.5Z" fill="#FBBF24"/>
<path d="M143.75 431.75C137.25 421.75 148.25 403.75 156.25 395.25L131.25 420.75C135.25 424.75 138.75 427.75 143.75 431.75Z" fill="#FBBF24"/>
<path d="M406 431.5C412.5 421.5 401.5 403.5 393.5 395L418.5 420.5C414.5 424.5 411 427.5 406 431.5Z" fill="#FBBF24"/>
<path d="M434.25 404.25C424.25 410.75 406.25 399.75 397.75 391.75L423.25 416.75C427.25 412.75 430.25 409.25 434.25 404.25Z" fill="#FBBF24"/>
<mask id="path-15-outside-1_351_38" maskUnits="userSpaceOnUse" x="44" y="64" width="459" height="424" fill="black">
<rect fill="white" x="44" y="64" width="459" height="424"/>
<path d="M144.873 388V164H188.713L286.633 291.68H261.353L359.593 164H402.793V388H355.753V308.64C355.753 290.72 356.179 273.973 357.033 258.4C358.099 242.827 359.806 227.04 362.153 211.04L367.273 227.04L284.393 330.4H263.272L180.073 226.72L185.513 211.04C188.073 226.827 189.779 242.507 190.633 258.08C191.486 273.44 191.913 290.293 191.913 308.64V388H144.873Z"/>
</mask>
<path d="M144.873 388V164H188.713L286.633 291.68H261.353L359.593 164H402.793V388H355.753V308.64C355.753 290.72 356.179 273.973 357.033 258.4C358.099 242.827 359.806 227.04 362.153 211.04L367.273 227.04L284.393 330.4H263.272L180.073 226.72L185.513 211.04C188.073 226.827 189.779 242.507 190.633 258.08C191.486 273.44 191.913 290.293 191.913 308.64V388H144.873Z" fill="#FBBF24"/>
<path d="M144.873 388H44.8725V488H144.873V388ZM144.873 164V64H44.8725V164H144.873ZM188.713 164L268.064 103.144L238.043 64H188.713V164ZM286.633 291.68V391.68H489.347L365.984 230.824L286.633 291.68ZM261.353 291.68L182.097 230.699L58.2352 391.68H261.353V291.68ZM359.593 164V64H310.36L280.338 103.019L359.593 164ZM402.793 164H502.793V64H402.793V164ZM402.793 388V488H502.793V388H402.793ZM355.753 388H255.753V488H355.753V388ZM357.033 258.4L257.266 251.567L257.22 252.247L257.182 252.929L357.033 258.4ZM362.152 211.04L457.395 180.562L263.211 196.529L362.152 211.04ZM367.273 227.04L445.289 289.598L478.881 247.705L462.515 196.562L367.273 227.04ZM284.393 330.4V430.4H332.385L362.409 392.958L284.393 330.4ZM263.272 330.4L185.28 392.987L215.303 430.4H263.272V330.4ZM180.073 226.72L85.5968 193.943L67.4731 246.182L102.08 289.307L180.073 226.72ZM185.513 211.04L284.223 195.033L91.0368 178.263L185.513 211.04ZM190.633 258.08L90.7823 263.551L90.7844 263.589L90.7865 263.627L190.633 258.08ZM191.913 388V488H291.913V388H191.913ZM144.873 388H244.873V164H144.873H44.8725V388H144.873ZM144.873 164V264H188.713V164V64H144.873V164ZM188.713 164L109.361 224.856L207.281 352.536L286.633 291.68L365.984 230.824L268.064 103.144L188.713 164ZM286.633 291.68V191.68H261.353V291.68V391.68H286.633V291.68ZM261.353 291.68L340.608 352.661L438.848 224.981L359.593 164L280.338 103.019L182.097 230.699L261.353 291.68ZM359.593 164V264H402.793V164V64H359.593V164ZM402.793 164H302.793V388H402.793H502.793V164H402.793ZM402.793 388V288H355.753V388V488H402.793V388ZM355.753 388H455.753V308.64H355.753H255.753V388H355.753ZM355.753 308.64H455.753C455.753 292.283 456.143 277.379 456.883 263.871L357.033 258.4L257.182 252.929C256.216 270.568 255.753 289.157 255.753 308.64H355.753ZM357.033 258.4L456.799 265.233C457.683 252.319 459.108 239.094 461.094 225.551L362.152 211.04L263.211 196.529C260.504 214.985 258.515 233.334 257.266 251.567L357.033 258.4ZM362.152 211.04L266.91 241.518L272.03 257.518L367.273 227.04L462.515 196.562L457.395 180.562L362.152 211.04ZM367.273 227.04L289.256 164.482L206.376 267.842L284.393 330.4L362.409 392.958L445.289 289.598L367.273 227.04ZM284.393 330.4V230.4H263.272V330.4V430.4H284.393V330.4ZM263.272 330.4L341.265 267.813L258.065 164.133L180.073 226.72L102.08 289.307L185.28 392.987L263.272 330.4ZM180.073 226.72L274.548 259.497L279.988 243.817L185.513 211.04L91.0368 178.263L85.5968 193.943L180.073 226.72ZM185.513 211.04L86.802 227.047C88.8104 239.433 90.1272 251.596 90.7823 263.551L190.633 258.08L290.483 252.609C289.431 233.418 287.335 214.221 284.223 195.033L185.513 211.04ZM190.633 258.08L90.7865 263.627C91.5199 276.829 91.9125 291.804 91.9125 308.64H191.913H291.913C291.913 288.783 291.452 270.051 290.479 252.533L190.633 258.08ZM191.913 308.64H91.9125V388H191.913H291.913V308.64H191.913ZM191.913 388V288H144.873V388V488H191.913V388Z" fill="url(#paint0_radial_351_38)" mask="url(#path-15-outside-1_351_38)"/>
<defs>
<radialGradient id="paint0_radial_351_38" cx="0" cy="0" r="1" gradientUnits="userSpaceOnUse" gradientTransform="translate(274 268) rotate(-180) scale(294.5 166.238)">
<stop/>
<stop offset="1" stop-color="#666666" stop-opacity="0"/>
</radialGradient>
</defs>
</svg>
