<svg width="550" height="550" viewBox="0 0 550 550" fill="none" xmlns="http://www.w3.org/2000/svg">
<path d="M146.045 422.468V198.468H189.885L287.805 326.148H262.525L360.765 198.468H403.965V422.468H356.925V343.108C356.925 325.188 357.352 308.441 358.205 292.868C359.272 277.295 360.978 261.508 363.325 245.508L368.445 261.508L285.565 364.868H264.445L181.245 261.188L186.685 245.508C189.245 261.295 190.952 276.975 191.805 292.548C192.658 307.908 193.085 324.761 193.085 343.108V422.468H146.045Z" fill="#FBBF24"/>
<path d="M119.172 114.968C82.1724 150.468 59.7383 194.046 51.1724 238.468C42.6064 282.89 47.3697 328.258 64.1724 370.103C80.975 411.947 107.665 445.805 144.172 470.968C180.68 496.131 231.265 511.468 275.172 511.468C319.08 511.468 373.665 492.131 410.172 466.968C446.68 441.805 468.369 411.947 485.172 370.103C501.975 328.258 507.738 282.89 499.172 238.468C490.606 194.046 467.672 152.968 431.172 114.968L386.672 164.968C409.424 188.437 428.454 217.176 434.731 249.729C441.008 282.282 437.787 316.024 425.473 346.688C413.16 377.352 390.426 400.028 363.672 418.468C336.919 436.908 307.348 445.968 275.172 445.968C242.996 445.968 213.926 436.908 187.172 418.468C160.419 400.028 137.184 377.352 124.871 346.688C112.558 316.024 109.336 282.282 115.613 249.729C121.89 217.176 139.42 188.437 162.172 164.968L119.172 114.968Z" fill="#FBBF24"/>
<path d="M131.671 103.968C173.502 71.156 217.172 52.9683 275.672 52.9683C328.821 54.2661 378.992 69.1535 419.171 103.968L376.672 153.968C347.228 128.455 314.62 120.419 275.672 119.468C236.723 118.517 204.327 129.923 173.672 153.968L131.671 103.968Z" fill="#374151"/>
</svg>
